<?xml version="1.0" encoding="UTF-8" standalone="no"?>
<!-- Created with Inkscape (http://www.inkscape.org/) -->

<svg
   width="210mm"
   height="297mm"
   viewBox="0 0 210 297"
   version="1.1"
   id="svg1"
   xml:space="preserve"
   xmlns="http://www.w3.org/2000/svg"
   xmlns:svg="http://www.w3.org/2000/svg"><defs
     id="defs1" /><g
     id="layer1"><rect
       style="fill:#782121;stroke-width:2.51468"
       id="rect3"
       width="272.21918"
       height="322.52054"
       x="-14.794518"
       y="-40.684929" /><circle
       style="fill:#ffffff;stroke-width:4.78794"
       id="path3"
       cx="130.36348"
       cy="95.154533"
       r="114.65753" /><path
       style="fill:#000000"
       d="m 96.710029,166.72811 c 0,-1.3432 1.121047,-4.19034 2.406904,-6.11286 2.582867,-3.86171 6.504717,-6.57962 16.802337,-11.6443 10.09876,-4.96687 13.66616,-7.02457 19.55221,-11.27783 17.43526,-12.59871 27.04932,-29.15912 25.76126,-44.374312 -0.97268,-11.489868 -7.72837,-20.931517 -17.23016,-24.080619 -3.14249,-1.041489 -5.21205,-1.367328 -8.70031,-1.369804 -4.94518,-0.0035 -8.84634,0.985428 -14.11829,3.578967 -3.37699,1.661314 -8.2158,4.977901 -9.65729,6.619236 l -0.66146,0.753162 0.79375,-0.502703 c 4.44233,-2.813442 6.69147,-3.912577 10.45104,-5.107335 4.0791,-1.296299 6.40128,-1.677004 10.18646,-1.669997 13.46236,0.02492 22.55139,8.16712 23.95786,21.462086 0.77778,7.352129 -1.7517,16.105629 -6.84605,23.691369 -9.71444,14.46529 -27.70467,26.12868 -53.381018,34.60787 -11.552796,3.81512 -22.634329,6.63298 -37.020279,9.41367 -6.542505,1.26461 -11.823483,2.17573 -11.93934,2.05986 -0.0453,-0.0453 1.770904,-3.41001 4.036078,-7.47707 2.265177,-4.06707 7.104075,-12.75248 10.753116,-19.30092 3.649034,-6.54843 7.483315,-13.45406 8.520622,-15.34583 1.037307,-1.89177 5.800668,-10.46426 10.585246,-19.04999 4.784578,-8.58573 9.489319,-17.039167 10.454986,-18.785417 0.965657,-1.746249 3.285374,-5.913437 5.154908,-9.260416 1.869537,-3.346979 3.958111,-7.097447 4.641271,-8.334374 0.68317,-1.236927 3.23861,-5.820833 5.67878,-10.186458 2.44016,-4.365625 5.62442,-10.140156 7.07613,-12.832291 3.26877,-6.061793 5.38432,-9.252299 8.64825,-13.042596 9.55772,-11.099086 22.43011,-16.786046 36.77572,-16.247337 9.99013,0.375151 16.43397,2.760077 22.16409,8.203137 2.71766,2.581507 4.36999,4.846305 6.02224,8.254505 1.41003,2.908538 2.91587,7.041003 2.74858,7.542877 -0.0487,0.14623 -0.62414,-0.657658 -1.27866,-1.786418 -1.58502,-2.733479 -6.02868,-7.243686 -8.65772,-8.787393 -9.53434,-5.598316 -22.29038,-5.586835 -30.55786,0.0275 -3.52889,2.396426 -6.41763,5.743015 -8.26713,9.57742 -2.08042,4.313173 -2.83742,7.535063 -2.83805,12.079135 -4.4e-4,3.161011 0.4647,5.318068 1.6876,7.826172 1.67753,3.440513 3.69266,5.077458 9.24908,7.513297 9.45148,4.143357 13.60091,6.76136 18.43887,11.633647 6.74246,6.790293 9.91977,14.362162 10.2818,24.502629 0.23265,6.516611 -0.55865,11.869901 -2.71058,18.337501 -1.25489,3.77157 -3.79529,9.12476 -5.80322,12.22872 -6.29331,9.72846 -16.34565,18.37506 -28.40175,24.42999 -10.64716,5.34733 -25.84926,9.98665 -39.47911,12.04809 -1.95862,0.29623 -3.948074,0.60439 -4.421014,0.6848 -0.775137,0.1318 -0.859897,0.0826 -0.859897,-0.49937 z M 180.84752,57.898892 c 0,-0.09785 0.57088,-0.841992 1.26863,-1.653646 0.69775,-0.811654 3.33349,-4.007608 5.8572,-7.102119 l 4.58856,-5.626385 1.48499,1.386079 c 5.59157,5.219125 13.22094,12.756853 13.1038,12.946394 -0.16393,0.265235 -26.30318,0.314602 -26.30318,0.04968 z m -2.93355,-14.88813 c -3.90702,-0.751247 -4.79524,-6.138739 -1.36192,-8.260651 2.13451,-1.319195 5.21895,-0.43516 6.27949,1.799772 1.36433,2.875117 -0.29331,5.922353 -3.57152,6.565524 -0.21828,0.04283 -0.824,-0.0043 -1.34605,-0.104645 z"
       id="path1" /><path
       style="fill:#a02c2c"
       d="m 56.982849,164.53969 26.67359,-4.99705 -60.692548,102.33221 C 18.229289,269.85773 -2.7726189,251.24856 -2.7726189,251.24856 -6.669547,249.63957 53.134328,165.26067 56.982849,164.53969 Z"
       id="path1-2" /></g></svg>
