<?xml version="1.0" encoding="UTF-8" standalone="no"?>
<!-- Created with Inkscape (http://www.inkscape.org/) -->

<svg
   width="251.55075mm"
   height="286.16693mm"
   viewBox="0 0 251.55075 286.16693"
   version="1.1"
   id="svg1"
   xml:space="preserve"
   sodipodi:docname="logo.svg"
   inkscape:version="1.4.2 (1:1.4.2+202505120737+ebf0e940d0)"
   xmlns:inkscape="http://www.inkscape.org/namespaces/inkscape"
   xmlns:sodipodi="http://sodipodi.sourceforge.net/DTD/sodipodi-0.dtd"
   xmlns="http://www.w3.org/2000/svg"
   xmlns:svg="http://www.w3.org/2000/svg"><sodipodi:namedview
     id="namedview1"
     pagecolor="#ffffff"
     bordercolor="#666666"
     borderopacity="1.0"
     inkscape:showpageshadow="2"
     inkscape:pageopacity="0.0"
     inkscape:pagecheckerboard="0"
     inkscape:deskcolor="#d1d1d1"
     inkscape:document-units="mm"
     inkscape:zoom="0.36168631"
     inkscape:cx="409.19437"
     inkscape:cy="642.82223"
     inkscape:window-width="1534"
     inkscape:window-height="831"
     inkscape:window-x="66"
     inkscape:window-y="32"
     inkscape:window-maximized="1"
     inkscape:current-layer="svg1" /><defs
     id="defs1" /><circle
     style="fill:#ffffff;stroke-width:3.228"
     id="path2"
     cx="133.77489"
     cy="117.77586"
     r="117.77586" /><circle
     style="fill:#ffffff;stroke-width:4.78794"
     id="path3"
     cx="133.31848"
     cy="117.45634"
     r="114.65753" /><path
     style="fill:#000000"
     d="m 99.665026,189.02992 c 0,-1.3432 1.121044,-4.19034 2.406904,-6.11286 2.58287,-3.86171 6.50472,-6.57962 16.80234,-11.6443 10.09876,-4.96687 13.66616,-7.02457 19.55221,-11.27783 17.43526,-12.59871 27.04932,-29.15912 25.76126,-44.37431 -0.97268,-11.48987 -7.72837,-20.931518 -17.23016,-24.08062 -3.14249,-1.041489 -5.21205,-1.367328 -8.70031,-1.369804 -4.94518,-0.0035 -8.84634,0.985428 -14.11829,3.578967 -3.37699,1.661314 -8.2158,4.977901 -9.65729,6.619237 l -0.66146,0.75316 0.79375,-0.5027 c 4.44233,-2.813444 6.69147,-3.912579 10.45104,-5.107337 4.0791,-1.296299 6.40128,-1.677004 10.18646,-1.669997 13.46236,0.02492 22.55139,8.167124 23.95786,21.462084 0.77778,7.35213 -1.7517,16.10563 -6.84605,23.69137 -9.71444,14.46529 -27.70467,26.12868 -53.381021,34.60787 -11.552796,3.81512 -22.634329,6.63298 -37.020279,9.41367 -6.542505,1.26461 -11.823483,2.17573 -11.93934,2.05986 -0.0453,-0.0453 1.770904,-3.41001 4.036078,-7.47707 2.265177,-4.06707 7.104075,-12.75248 10.753116,-19.30092 3.649034,-6.54843 7.483315,-13.45406 8.520622,-15.34583 1.037307,-1.89177 5.800668,-10.46426 10.585246,-19.04999 4.784578,-8.58573 9.489319,-17.03917 10.454986,-18.78542 0.965657,-1.74624 3.285374,-5.913433 5.154908,-9.260412 1.869534,-3.346979 3.958114,-7.097447 4.641274,-8.334374 0.68317,-1.236927 3.23861,-5.820833 5.67878,-10.186458 2.44016,-4.365625 5.62442,-10.140156 7.07613,-12.832291 3.26877,-6.061793 5.38432,-9.252299 8.64825,-13.042596 9.55772,-11.099086 22.43011,-16.786046 36.77572,-16.247337 9.99013,0.375151 16.43397,2.760077 22.16409,8.203137 2.71766,2.581507 4.36999,4.846305 6.02224,8.254505 1.41003,2.908538 2.91587,7.041003 2.74858,7.542877 -0.0487,0.14623 -0.62414,-0.657658 -1.27866,-1.786418 -1.58502,-2.733479 -6.02868,-7.243686 -8.65772,-8.787393 -9.53434,-5.598316 -22.29038,-5.586835 -30.55786,0.0275 -3.52889,2.396426 -6.41763,5.743015 -8.26713,9.57742 -2.08042,4.313173 -2.83742,7.535063 -2.83805,12.079135 -4.4e-4,3.161011 0.4647,5.318068 1.6876,7.826172 1.67753,3.440513 3.69266,5.077458 9.24908,7.513297 9.45148,4.143357 13.60091,6.76136 18.43887,11.633647 6.74246,6.790289 9.91977,14.362159 10.2818,24.502629 0.23265,6.51661 -0.55865,11.8699 -2.71058,18.3375 -1.25489,3.77157 -3.79529,9.12476 -5.80322,12.22872 -6.29331,9.72846 -16.34565,18.37506 -28.40175,24.42999 -10.64716,5.34733 -25.84926,9.98665 -39.47911,12.04809 -1.95862,0.29623 -3.94808,0.60439 -4.42102,0.6848 -0.775134,0.1318 -0.859894,0.0826 -0.859894,-0.49937 z M 183.80252,80.200703 c 0,-0.09785 0.57088,-0.841992 1.26863,-1.653646 0.69775,-0.811654 3.33349,-4.007608 5.8572,-7.102119 l 4.58856,-5.626385 1.48499,1.386079 c 5.59157,5.219125 13.22094,12.756853 13.1038,12.946394 -0.16393,0.265235 -26.30318,0.314602 -26.30318,0.04968 z m -2.93355,-14.88813 c -3.90702,-0.751247 -4.79524,-6.138739 -1.36192,-8.260651 2.13451,-1.319195 5.21895,-0.43516 6.27949,1.799772 1.36433,2.875117 -0.29331,5.922353 -3.57152,6.565524 -0.21828,0.04283 -0.824,-0.0043 -1.34605,-0.104645 z"
     id="path1" /><path
     style="fill:#a02c2c"
     d="m 59.937846,186.8415 26.67359,-4.99705 -60.692548,102.33221 C 21.184286,292.15954 0.18237838,273.55037 0.18237838,273.55037 -3.7145497,271.94138 56.089325,187.56248 59.937846,186.8415 Z"
     id="path1-2" /></svg>
